<svg version="1.1" xmlns="http://www.w3.org/2000/svg" xmlns:xlink="http://www.w3.org/1999/xlink" width="76.89436" height="102.75193" viewBox="0,0,76.89436,102.75193"><g transform="translate(-210.0563,-128.62403)"><g data-paper-data="{&quot;isPaintingLayer&quot;:true}" fill="none" fill-rule="nonzero" stroke="#ffffff" stroke-width="3.5" stroke-linejoin="miter" stroke-miterlimit="10" stroke-dasharray="" stroke-dashoffset="0" style="mix-blend-mode: normal"><path d="M232.11519,229.62344h12.74181l-34.79355,0.00252l16.59893,-0.06778l-0.11403,-97.18721c0,0 -0.15214,-2.00082 1.58411,-1.99693c4.79878,0.01074 30.10131,0.14661 40.03679,0.09012c2.32312,-0.01321 1.6879,2.00376 1.6879,2.00376v7.10211" stroke-linecap="round"/><path d="M280.39686,155.72496c0,6.06533 -4.7723,10.98225 -10.65925,10.98225c-5.88694,0 -10.65925,-4.91692 -10.65925,-10.98225c0,-6.06533 4.7723,-10.98225 10.65925,-10.98225c5.88694,0 10.65925,4.91692 10.65925,10.98225z" stroke-linecap="butt"/><path d="M285.20066,183.07745c0,0 -9.4293,-8.26021 -11.02863,-9.67936" data-paper-data="{&quot;index&quot;:null}" stroke-linecap="round"/><path d="M266.30888,201.94692c-1.59933,1.41915 -11.63905,10.28978 -11.63905,10.28978" data-paper-data="{&quot;index&quot;:null}" stroke-linecap="round"/><path d="M254.7607,183.06205c0,0 11.08382,-9.91473 12.68315,-11.33388c1.0019,-0.88336 2.6082,-1.71454 2.59592,-0.42953c-0.00895,0.93665 -0.00292,19.80621 -0.00072,25.93881c0.00017,0.48247 0.0679,1.33366 0.10111,1.55164c0.04909,0.32223 0.08349,-0.07084 0.20721,0.35555c0.11243,0.38746 0.21907,0.46228 0.79179,0.96496c2.04727,1.79694 14.04839,12.33062 14.04839,12.33062" data-paper-data="{&quot;index&quot;:null}" stroke-linecap="round"/></g></g></svg>