<svg version="1.1" xmlns="http://www.w3.org/2000/svg" xmlns:xlink="http://www.w3.org/1999/xlink" width="109.14824" height="102.75193" viewBox="0,0,109.14824,102.75193"><g transform="translate(-210.05632,-128.62403)"><g data-paper-data="{&quot;isPaintingLayer&quot;:true}" fill="none" fill-rule="nonzero" stroke="#ffffff" stroke-width="3.5" stroke-linecap="round" stroke-linejoin="miter" stroke-miterlimit="10" stroke-dasharray="" stroke-dashoffset="0" style="mix-blend-mode: normal"><path d="M232.1152,229.62344h12.74181l-34.79355,0.00252l16.59893,-0.06778l-0.11403,-97.18721c0,0 -0.15214,-2.00082 1.58411,-1.99693c4.79878,0.01074 30.10131,0.14661 40.03679,0.09012c2.32312,-0.01321 1.6879,2.00376 1.6879,2.00376v7.10211"/><path d="M285.20067,183.07745c0,0 -9.4293,-8.26021 -11.02863,-9.67936" data-paper-data="{&quot;index&quot;:null}"/><path d="M263.12893,205.26165c0,0 1.58062,-1.89558 3.17995,-3.31473" data-paper-data="{&quot;index&quot;:null}"/><path d="M261.43894,176.23541c0,0 4.40558,-3.08809 6.00491,-4.50724c1.0019,-0.88336 2.6082,-1.71454 2.59592,-0.42953c-0.00895,0.93665 -0.00292,19.80621 -0.00072,25.93881c0.00017,0.48247 0.0679,1.33366 0.10111,1.55164c0.04909,0.32223 0.08349,-0.07084 0.20721,0.35555c0.11243,0.38746 0.21907,0.46228 0.79179,0.96496l4.64326,4.12987" data-paper-data="{&quot;index&quot;:null}"/><g><path d="M269.87478,156.09944l-9.66616,-5.1833l0.28018,7.28464l4.90312,2.6617l0.70045,5.88375c0,0 -1.22564,0.7153 -7.2005,-2.05469c-4.2473,-1.96908 -5.15718,-4.10924 -5.15718,-4.10924c0,0 -0.50103,-9.96944 1.96125,-15.12964c4.54991,-9.53527 11.39158,-10.2344 14.84946,-10.22652c4.5404,0.01036 10.74431,4.24731 13.64362,10.32339c2.46228,5.1602 1.96125,15.12964 1.96125,15.12964c0,0 -0.90987,2.14016 -5.15717,4.10924c-5.97486,2.76999 -7.20051,2.05468 -7.20051,2.05468l0.70045,-5.88375l4.90312,-2.6617l0.28018,-7.28464z" data-paper-data="{&quot;index&quot;:null}"/><path d="M273.90329,166.61612h-7.7321"/></g><path d="M246.97817,189.85056c-1.73889,-3.86244 -4.3025,-13.17237 -4.3025,-13.17237c0,0 4.11862,-0.80323 5.69722,-1.74826c1.71824,-1.02863 3.77896,-3.93324 3.77896,-3.93324c0,0 2.37339,2.42409 4.36292,3.63679c1.95499,1.19165 6.04719,1.15427 6.04719,1.15427c0,0 -1.28244,8.76515 -3.4597,13.92358c-2.17726,5.15843 -6.3568,9.33395 -6.3568,9.33395c0,0 -4.0284,-5.33228 -5.76729,-9.19472z"/><path d="M302.04734,159.56949c0,0 4.32749,-0.21292 6.48892,-1.42229c1.97755,-1.1065 3.45423,-6.44319 3.45423,-6.44319c0,0 9.53523,6.76508 3.41332,20.33152c-3.61355,8.0078 -13.50488,6.67824 -13.50488,6.67824c0,0 2.33197,-4.73869 1.61259,-6.82491c-0.76219,-2.21036 -3.24504,-5.19592 -3.24504,-5.19592l-16.62139,31.46191l-4.15535,-2.52289l16.47298,-32.35234l-4.00694,-2.07767l2.37448,-5.93621l7.71707,4.30375z"/><path d="M254.79,219.67538c0,0 -14.13958,-5.96086 -8.91493,-11.81423c3.27217,-3.66594 8.08295,0.50367 8.08295,0.50367l5.82721,-6.49689l5.45132,5.68686z"/><path d="M273.60972,207.50902l5.45132,-5.68686l5.82721,6.49689c0,0 4.81078,-4.16961 8.08295,-0.50367c5.22465,5.85337 -8.91493,11.81423 -8.91493,11.81423z" data-paper-data="{&quot;index&quot;:null}"/></g></g></svg>